<?xml version="1.0" encoding="utf-8"?>
<!-- Generator: Adobe Illustrator 16.0.0, SVG Export Plug-In . SVG Version: 6.00 Build 0)  -->
<!DOCTYPE svg PUBLIC "-//W3C//DTD SVG 1.1//EN" "http://www.w3.org/Graphics/SVG/1.1/DTD/svg11.dtd">
<svg version="1.1" id="Layer_1" xmlns="http://www.w3.org/2000/svg" xmlns:xlink="http://www.w3.org/1999/xlink" x="0px" y="0px"
	 width="396px" height="373px" viewBox="0 0 396 373" enable-background="new 0 0 396 373" xml:space="preserve">
<circle fill="#FFFFFF" cx="204.995" cy="199.176" r="48.6"/>
<g>
	<g>
		<path fill="#AD1B20" d="M202.867,152.173c17.225-0.971,34.428,8.606,42.787,23.674c5.598,9.776,7.424,21.61,5.105,32.628
			c-3.185,15.901-15.285,29.581-30.662,34.714c-9.518,3.28-20.106,3.356-29.67,0.213c-8.354-2.709-15.889-7.85-21.487-14.609
			c-6.253-7.48-10.056-16.97-10.684-26.7c-0.763-10.599,2.266-21.422,8.414-30.092C174.817,160.276,188.588,152.695,202.867,152.173
			z M205.198,155.381c0.235,0.153,0.47,0.309,0.708,0.464c-0.389,1.432,0.353,3.482-1.022,4.425
			c-2.334-0.087-4.603,0.593-6.935,0.596c0.071-0.421,0.146-0.842,0.219-1.261c-0.353,0.517-0.752,0.998-1.192,1.438
			c-0.295,0.077-0.58,0.191-0.867,0.287c-2.364-0.106-3.258-3.201-1.547-4.715c-1.159,0.584-1.851,1.896-1.498,3.179
			c-3.821,1.528-7.599,3.172-11.079,5.392c-0.125-0.169-0.249-0.339-0.374-0.508c-0.438,0.522-0.968,0.951-1.522,1.342
			c-0.383-0.528-0.763-1.055-1.137-1.588c0.675-0.517,1.372-1.131,2.288-1.047c-0.21-0.15-0.421-0.304-0.631-0.457
			c-0.863,0.612-1.706,1.252-2.605,1.81c1.162,0.618,1.692,1.905,2.463,2.906c-2.047,1.741-3.955,3.635-5.811,5.578
			c-0.831-0.954-2.165-1.433-2.682-2.649c-0.194,0.251-0.391,0.506-0.587,0.755c1.096,0.366,1.995,1.137,2.796,1.946
			c1.148,1.277-0.874,3.597-2.304,2.586c-0.88-0.612-1.858-1.211-2.364-2.198c-0.216,0.306-0.435,0.61-0.656,0.913
			c0.869,0.342,1.556,0.986,2.276,1.558c-1.456,2.354-2.815,4.774-3.856,7.342c-0.219,0.596-0.609,1.098-1.044,1.55
			c-0.62-0.244-1.238-0.492-1.856-0.738c-0.005-0.222-0.014-0.665-0.019-0.886c-0.205,0.531-0.411,1.061-0.637,1.583
			c1.345,0.046,2.547,0.746,3.78,1.208c-1.024,2.167-1.254,4.58-1.864,6.876c-0.354,0.14-0.708,0.282-1.065,0.416
			c-0.24,0.282-0.484,0.563-0.725,0.848c-0.561-1.266-2.036-0.728-2.266,0.461c0.817-0.907,2.422-0.653,2.143,0.803
			c-0.085,0.569-0.738,0.476-1.156,0.615c-0.208-0.016-0.626-0.052-0.834-0.071c-0.027-0.426-0.06-0.855-0.099-1.281
			c-0.082,0.866-0.109,1.735-0.145,2.602c0.167-0.227,0.333-0.457,0.5-0.684c0.481,0.038,0.959,0.077,1.441,0.112
			c0.292,0.178,0.587,0.358,0.88,0.539c0.099,1.372,0.096,2.755-0.175,4.108c-0.79,0.083-1.845,0.383-1.845,1.364
			c-0.156,1.068,0.932,1.631,1.854,1.565c1.276,1.452,0.782,3.666,1.59,5.374c-0.938,0.358-1.892,0.703-2.895,0.814
			c0.53,1.074,0.566,2.818,1.981,3.113c0.854,0.183,1.351-0.577,1.591-1.274c0.473,0.112,0.954,0.188,1.438,0.243
			c0.662,1.952,1.673,3.761,2.452,5.667c-1.058,0.727-2.116,1.508-3.34,1.932c0.514,0.79,1.014,1.588,1.52,2.384
			c0.423,0.032,0.847,0.071,1.271,0.111c-1.027-0.224-1.679-1.011-2.102-1.924c1.012-0.697,2.026-1.399,3.113-1.97
			c1.356,2.383,3.053,4.542,4.833,6.62c-0.664,1.017-2.061,1.675-2.083,3.022c0.167,1.364,1.621,2.671,3.028,2.266
			c1.011-0.41,1.536-1.459,2.397-2.075c1.591,1.454,3.406,2.635,5.125,3.931c-0.727,1.071-1.096,2.52-2.298,3.17
			c0.771,0.399,1.517,0.842,2.307,1.203c-0.399-0.367-0.815-0.711-1.225-1.061c0.339-0.576,0.684-1.153,1.028-1.727
			c0.607,0.338,1.208,0.722,1.577,1.331c0.125-0.213,0.254-0.421,0.386-0.628c3.056,1.426,6.218,2.574,9.419,3.621
			c-0.654,1.679,0.79,3.351,2.465,3.458c-2.378-0.735-2.465-4.297-0.063-5.064l0.128,0.008c0.979,0.241,1.899,0.705,2.258,1.717
			c0.057-0.347,0.118-0.694,0.18-1.039c-0.137-0.061-0.41-0.175-0.546-0.233c1.935-0.128,3.846,0.416,5.773,0.211
			c1.41,0.888,0.595,2.966,1.008,4.376c-0.241,0.153-0.481,0.309-0.722,0.464c0.634-0.043,1.271-0.079,1.908-0.104
			c-0.188-0.14-0.379-0.282-0.568-0.421c-0.041-0.533-0.076-1.069-0.115-1.602c0.167-0.049,0.503-0.145,0.669-0.194
			c1.38,0.787,2.449,2.279,4.226,2.091c-1.241-0.481-2.254-1.348-3.239-2.216c0.287-0.243,0.577-0.484,0.864-0.725
			c2.917-0.317,5.778-0.971,8.572-1.853c0.902,0.522,1.547,1.528,1.241,2.591c0.372-0.126,0.749-0.247,1.126-0.361
			c-1.187-1.273-0.728-3.053-0.213-4.515c1.987-0.35,3.725-1.452,5.387-2.539c0.896,1.126,2.433,0.429,3.575,0.948
			c0.67,0.402,0.164,1.219,0.052,1.779c0.483-0.543,1.049-1.344,0.524-2.055c-0.864-1.184-2.81,0.008-3.61-1.135
			c0.188-0.385,0.344-0.79,0.604-1.134c0.492,0.036,0.987,0.085,1.479,0.137c-0.273-0.238-0.549-0.476-0.82-0.713
			c1.43-1.225,2.897-2.4,4.324-3.627c0.106,0.099,0.317,0.292,0.423,0.388c0.292-0.617,0.724-1.15,1.214-1.626
			c1.071,1.091,2.323,2.02,3.198,3.291c0.23-0.235,0.462-0.471,0.697-0.7c-0.842-0.457-1.517-1.139-2.187-1.809
			c2.001-2.187,3.466-4.786,5.368-7.039c0.634,0.755,1.326,1.496,1.654,2.449c0.109-0.246,0.222-0.492,0.333-0.735
			c-1.151-0.748-1.867-1.954-0.672-3.044c0.741,0.147,1.481,0.314,2.187,0.596c0.156-0.278,0.312-0.552,0.47-0.825
			c-1.449-0.052-2.854-0.418-4.272-0.667c1.066-2.244,2.126-4.507,2.758-6.92c1.282,0.312,2.547,0.688,3.794,1.12
			c0.227-0.885,0.47-1.768,0.708-2.651c-0.186-0.235-0.369-0.47-0.552-0.708c0.246,0.864,0.074,1.738-0.208,2.566
			c-0.806-0.164-1.604-0.364-2.394-0.596c0.369-1.845,0.517-3.764,1.249-5.513c1.824,0.59,2.887-1.828,1.282-2.799
			c-0.375-0.043-0.751-0.095-1.123-0.147c-0.11-2.165-0.266-4.371,0.167-6.508c0.604-0.049,1.208-0.101,1.812-0.156
			c0.131,0.087,0.394,0.265,0.522,0.355c-0.017-0.516-0.03-1.033-0.03-1.547c-0.355,0.544-0.957,0.691-1.577,0.681
			c-0.372-0.068-0.743-0.137-1.112-0.208c-0.539-2.755-0.979-5.554-1.982-8.191c0.647-0.848,2.361-1.435,2.176-2.537
			c-1.81-0.221-3.796,0.484-5.478-0.36c-0.965-2.646-2.919-4.789-3.832-7.457c1.131-0.904,2.184-1.943,3.484-2.61
			c-0.134-0.172-0.399-0.52-0.533-0.692c-0.632,0.65-1.342,1.211-2.05,1.774c-2.004-2.255-3.813-4.884-6.5-6.365
			c-0.353-1.244-1.657-3.731,0.719-3.524c-1.197-0.705-2.72,0.345-1.933,1.719c-1.203,0.087-2.025-0.91-2.985-1.459
			c-1.861-1.354-4.108-2.023-5.98-3.345c0.796-0.653,1.643-1.235,2.501-1.799c-0.216-0.063-0.645-0.186-0.861-0.246
			c-0.418,0.877-1.285,1.364-2.036,1.916c0.011-0.861-1.036-2.326,0.074-2.764c-0.629-0.183-1.241-0.415-1.839-0.684
			c0.675,0.667,0.795,1.624,0.973,2.507c-0.123,0.156-0.372,0.468-0.495,0.623c-3.436-1.244-7.052-1.754-10.614-2.474
			c1.52-0.621,0.714-2.533-0.661-2.673c1.511,0.973,0.613,3.384-1.222,2.67c0.024-0.905,0.101-1.81,0.322-2.69
			C206.19,155.433,205.693,155.408,205.198,155.381z M194.602,156.581c1.024-0.09,2.033,0.062,2.851,0.727
			C197.263,155.843,195.585,156.431,194.602,156.581z M231.796,164.988c-0.169,0.235-0.218,0.769,0.124,0.87
			C232.343,165.759,232.288,164.729,231.796,164.988z M237.129,171.361c0.232-0.019,0.691-0.054,0.921-0.073
			c0.252,0.271,0.493,0.981,0.902,0.502c-0.295-0.309-0.601-0.601-0.877-0.924C237.76,171.034,237.446,171.197,237.129,171.361z
			 M240.412,174.273c-0.044,0.262-0.087,0.524-0.131,0.787c0.208-0.227,0.417-0.451,0.628-0.678
			C240.535,173.497,239.466,173.034,240.412,174.273z M227.437,235.247c-0.142,0.614,1.088,0.828,1.165,0.229
			C228.267,235.282,227.816,235.175,227.437,235.247z M185.095,236.911c-0.262-0.003-1.181,0.016-0.836,0.457
			C184.562,237.859,185.709,237.206,185.095,236.911z M199.349,241.495c-0.334,0.005-0.604,0.136-0.809,0.39
			C198.578,242.451,199.888,241.784,199.349,241.495z"/>
	</g>
	<path fill="#AD1B20" d="M243.112,183.719c0.634-0.017,1.271-0.025,1.908-0.025c-0.47,0.445-0.951,0.88-1.441,1.301
		C243.421,184.569,243.265,184.142,243.112,183.719z"/>
	<path fill="#AD1B20" d="M163.578,211.386c1.135-0.683,2.474-0.935,3.701-1.41c0.043,0.495,0.265,0.951,0.555,1.347l0.183,0.279
		c-0.76,0.836-1.861,0.484-2.094-0.585c0.131,0.713,0.21,1.708-0.639,2.006C164.286,213.586,163.239,212.329,163.578,211.386z"/>
	<path fill="#AD1B20" d="M239.542,217.691c0.621,0.099,1.239,0.208,1.859,0.325c-0.247,0.383-0.492,0.766-0.738,1.147
		C240.286,218.675,239.909,218.187,239.542,217.691z"/>
	<path fill="#AD1B20" d="M174.396,227.848c0.566-0.795,1.293-1.468,2.088-2.028c0.705,0.694,1.487,1.301,2.301,1.861
		c-0.052,1.153-1.151,1.883-1.93,2.605C175.518,231.442,173.295,229.211,174.396,227.848z"/>
</g>
<g>
	<path fill="#FDF9F7" d="M205.198,155.381c0.495,0.027,0.992,0.052,1.487,0.068c-0.221,0.88-0.298,1.785-0.322,2.69
		c1.834,0.713,2.733-1.698,1.222-2.67c1.375,0.14,2.181,2.052,0.661,2.673l-0.251,0.087c0.82,0.99,1.7,1.943,2.769,2.67
		c-2.034-0.005-2.55-2.459-4.417-2.758c-0.049,0.719-0.083,1.441-0.096,2.162c-0.457-0.014-0.91-0.027-1.366-0.033
		c1.375-0.943,0.633-2.993,1.022-4.425C205.668,155.69,205.434,155.534,205.198,155.381z"/>
	<path fill="#FDF9F7" d="M194.602,156.581c0.983-0.15,2.662-0.738,2.851,0.727C196.635,156.644,195.626,156.491,194.602,156.581z"/>
	<path fill="#FDF9F7" d="M193.065,159.795c-0.353-1.282,0.338-2.594,1.498-3.179c-1.711,1.514-0.817,4.608,1.547,4.715
		C194.863,161.864,193.516,160.976,193.065,159.795z"/>
	<path fill="#FDF9F7" d="M218.381,157.485c0.598,0.269,1.21,0.5,1.839,0.684c-1.11,0.438-0.063,1.902-0.074,2.764
		c0.751-0.552,1.618-1.039,2.036-1.916c0.216,0.06,0.645,0.183,0.861,0.246c-0.858,0.563-1.705,1.146-2.501,1.799
		c-0.629,0.555-0.771,1.401-0.787,2.197c-0.328-0.128-0.653-0.257-0.981-0.382c0.59-0.853,0.923-1.861,0.579-2.883
		C219.176,159.109,219.056,158.153,218.381,157.485z"/>
	<path fill="#FDF9F7" d="M196.977,161.044c0.44-0.44,0.839-0.921,1.192-1.438c-0.074,0.418-0.148,0.84-0.219,1.261
		C197.621,160.905,197.296,160.968,196.977,161.044z"/>
	<path fill="#FDF9F7" d="M178.004,164.739c0.899-0.558,1.742-1.197,2.605-1.81c0.21,0.153,0.421,0.306,0.631,0.457
		c-0.916-0.084-1.613,0.53-2.288,1.047c0.375,0.533,0.754,1.061,1.137,1.588c0.554-0.391,1.085-0.82,1.522-1.342
		c0.125,0.169,0.249,0.339,0.374,0.508c-0.612,0.295-1.2,0.643-1.768,1.017c0.416,0.563,0.836,1.124,1.263,1.678
		c0.858-0.497,1.697-1.125,1.848-2.184c0.09,0.339,0.183,0.672,0.276,1.009c-0.858,0.621-1.714,1.238-2.567,1.864
		c-0.188-0.309-0.375-0.621-0.571-0.927C179.697,166.645,179.167,165.357,178.004,164.739z"/>
	<path fill="#FDF9F7" d="M229.508,165.865c-0.787-1.375,0.735-2.424,1.933-1.719c-2.375-0.208-1.071,2.28-0.719,3.524
		c-0.7,1.716-2.629,0.94-3.357-0.323c0.121-0.311,0.238-0.623,0.355-0.934c0.06,0.907,0.511,2.279,1.689,1.943
		C230.402,167.836,229.672,166.664,229.508,165.865z"/>
	<path fill="#FDF9F7" d="M171.387,171.329c0.197-0.249,0.394-0.503,0.587-0.755c0.517,1.216,1.851,1.695,2.682,2.649
		c0.973,1.99-1.744,4.619-3.521,2.911c-0.721-0.571-1.408-1.216-2.276-1.558c0.221-0.303,0.44-0.607,0.656-0.913
		c0.506,0.987,1.484,1.585,2.364,2.198c1.43,1.011,3.452-1.309,2.304-2.586C173.382,172.466,172.483,171.695,171.387,171.329z"/>
	<path fill="#FDF9F7" d="M237.129,171.361c0.317-0.164,0.631-0.327,0.946-0.495c0.276,0.323,0.583,0.615,0.877,0.924
		c-0.41,0.479-0.65-0.232-0.902-0.502C237.82,171.307,237.361,171.343,237.129,171.361z"/>
	<path fill="#FDF9F7" d="M237.222,174.035c0.708-0.563,1.418-1.124,2.05-1.774c0.134,0.172,0.398,0.52,0.533,0.692
		c-1.301,0.667-2.353,1.706-3.484,2.61c-0.094,0.083-0.282,0.243-0.377,0.326c-0.205-0.219-0.407-0.435-0.61-0.65
		C235.995,174.894,236.637,174.502,237.222,174.035z"/>
	<path fill="#FDF9F7" d="M240.412,174.273c-0.946-1.239,0.123-0.776,0.498,0.109c-0.211,0.227-0.421,0.451-0.628,0.678
		C240.324,174.797,240.368,174.535,240.412,174.273z"/>
	<g>
		<path fill="#FDF9F7" d="M240.152,183.019c1.681,0.844,3.668,0.139,5.478,0.36c0.186,1.102-1.528,1.689-2.176,2.537
			c-0.571,0.506-1.093,1.065-1.585,1.65c-0.093-0.319-0.184-0.637-0.273-0.956c0.645-0.552,2.088-1.072,1.484-2.143
			c-0.232-1.241-1.725-0.669-2.553-0.456C240.403,183.678,240.281,183.347,240.152,183.019z M243.112,183.719
			c0.153,0.423,0.309,0.85,0.467,1.276c0.49-0.421,0.971-0.855,1.441-1.301C244.383,183.694,243.746,183.702,243.112,183.719z"/>
	</g>
	<path fill="#FDF9F7" d="M168.749,183.109c0.181,0.306,0.364,0.612,0.547,0.916c-0.358,0.94-0.719,1.881-1.02,2.84
		c-0.254-0.23-0.508-0.459-0.773-0.672c-1.232-0.462-2.435-1.162-3.78-1.208c0.227-0.522,0.432-1.052,0.637-1.583
		c0.005,0.221,0.013,0.664,0.019,0.886c0.618,0.246,1.236,0.494,1.856,0.738c0.703,0.27,1.408,0.527,2.118,0.779
		C168.747,184.957,168.944,184.036,168.749,183.109z"/>
	<path fill="#FDF9F7" d="M161.583,194.793c0.229-1.189,1.705-1.727,2.266-0.461c0.241-0.285,0.484-0.566,0.725-0.848
		c1.186-0.208,1.94,0.667,2.121,1.754c-0.771-1.344-2.761-1.404-2.968,0.358C164.005,194.14,162.4,193.886,161.583,194.793z"/>
	<path fill="#FDF9F7" d="M246.548,194.315c0.621,0.011,1.222-0.137,1.577-0.681c0,0.514,0.013,1.031,0.03,1.547
		c-0.128-0.09-0.391-0.268-0.522-0.355c-0.604,0.055-1.209,0.106-1.812,0.156c-0.746,0.057-1.493,0.123-2.236,0.2
		c0.101,0.836,0.243,1.67,0.342,2.506c-0.766-1.104-0.514-2.518-0.694-3.777c0.161,0.202,0.325,0.404,0.489,0.609
		C244.662,194.44,245.605,194.383,246.548,194.315z"/>
	<path fill="#FDF9F7" d="M161.493,197.46c0.036-0.866,0.063-1.736,0.145-2.602c0.039,0.426,0.071,0.855,0.099,1.281
		c0.208,0.02,0.626,0.055,0.834,0.071c1.109,0.065,2.22,0.156,3.329,0.246c0.194-0.325,0.391-0.651,0.585-0.976
		c-0.043,0.856-0.088,1.708-0.11,2.566c-0.111-0.3-0.224-0.599-0.336-0.899c-0.866-0.112-1.736-0.197-2.604-0.26
		c-0.481-0.036-0.96-0.074-1.441-0.112C161.826,197.004,161.659,197.233,161.493,197.46z"/>
	<path fill="#FDF9F7" d="M246.849,207.978c0.183,0.237,0.366,0.473,0.552,0.708c-0.237,0.883-0.481,1.766-0.708,2.651
		c-1.247-0.432-2.512-0.808-3.794-1.12c-0.342,0.036-0.681,0.09-1.017,0.148c0.111-0.364,0.224-0.73,0.336-1.094
		c0.67,0.246,1.345,0.476,2.028,0.678c0.79,0.232,1.588,0.432,2.394,0.596C246.922,209.716,247.094,208.842,246.849,207.978z"/>
	<g>
		<path fill="#FDF9F7" d="M165.737,209.839c0.602-0.229,1.176-0.522,1.736-0.836c0.418,1.195,1.099,2.509,0.38,3.733
			c-0.483-0.055-0.965-0.131-1.438-0.243c-0.241,0.697-0.738,1.457-1.591,1.274c-1.416-0.295-1.451-2.039-1.981-3.113
			C163.846,210.542,164.8,210.197,165.737,209.839z M163.578,211.386c-0.339,0.943,0.708,2.2,1.706,1.637
			c0.85-0.298,0.771-1.293,0.639-2.006c0.232,1.069,1.334,1.421,2.094,0.585l-0.183-0.279c0.344-0.396,0.033-1.489-0.555-1.347
			C166.052,210.451,164.713,210.703,163.578,211.386z"/>
	</g>
	<g>
		<path fill="#FDF9F7" d="M238.859,217.363c0.265-0.5,0.842-0.246,1.282-0.227c1.418,0.249,2.823,0.615,4.272,0.667
			c-0.158,0.273-0.314,0.547-0.47,0.825c-0.706-0.282-1.446-0.448-2.187-0.596c-1.194,1.09-0.479,2.296,0.672,3.044
			c-0.112,0.244-0.224,0.489-0.333,0.735c-0.328-0.954-1.02-1.694-1.654-2.449C239.903,218.706,239.318,218.08,238.859,217.363z
			 M239.542,217.691c0.367,0.495,0.744,0.984,1.121,1.473c0.246-0.382,0.492-0.765,0.738-1.147
			C240.781,217.899,240.163,217.79,239.542,217.691z"/>
	</g>
	<path fill="#FDF9F7" d="M171.034,217.714c0.186,0.281,0.372,0.565,0.561,0.849c-0.279,0.121-0.555,0.244-0.829,0.372
		c-1.087,0.571-2.102,1.273-3.113,1.97c0.423,0.913,1.075,1.7,2.102,1.924c-0.424-0.041-0.847-0.079-1.271-0.111
		c-0.506-0.796-1.006-1.594-1.52-2.384c1.224-0.423,2.282-1.205,3.34-1.932C170.557,218.181,170.794,217.946,171.034,217.714z"/>
	<path fill="#FDF9F7" d="M234.871,223.661c0.265,0.093,0.53,0.186,0.798,0.279c-0.749,0.175-1.355,0.637-1.886,1.169
		c0.426,0.435,0.855,0.867,1.29,1.293c0.67,0.67,1.345,1.353,2.187,1.809c-0.235,0.229-0.467,0.465-0.697,0.7
		c-0.875-1.271-2.126-2.2-3.198-3.291c-0.49,0.476-0.921,1.009-1.214,1.626c-0.106-0.095-0.317-0.289-0.423-0.388
		C232.859,225.88,233.844,224.746,234.871,223.661z"/>
	<path fill="#FDF9F7" d="M175.96,224.814c0.271,0.268,0.542,0.536,0.815,0.804c-0.074,0.049-0.216,0.15-0.29,0.202
		c-0.795,0.56-1.522,1.232-2.088,2.028c-1.102,1.364,1.121,3.594,2.46,2.438c0.779-0.722,1.878-1.452,1.93-2.605
		c0.323,0.232,0.646,0.462,0.97,0.694c-0.273,0.125-0.546,0.254-0.814,0.394c-0.861,0.615-1.386,1.665-2.397,2.075
		c-1.407,0.405-2.862-0.902-3.028-2.266c0.022-1.347,1.418-2.006,2.083-3.022C175.725,225.309,175.845,225.062,175.96,224.814z"/>
	<path fill="#FDF9F7" d="M227.404,230.485c0.271,0.237,0.546,0.475,0.82,0.713c-0.492-0.052-0.987-0.101-1.479-0.137
		C226.956,230.859,227.18,230.673,227.404,230.485z"/>
	<path fill="#FDF9F7" d="M184.021,231.523c0.992,0.596,1.985,1.192,2.988,1.777c-0.017,0.18-0.049,0.546-0.066,0.728
		c-0.495-0.706-1.191-1.219-1.938-1.635c-0.342,0.568-0.684,1.14-1.025,1.711c0.607,0.363,1.252,0.697,1.977,0.703
		c-0.03,0.046-0.085,0.137-0.115,0.18c-0.132,0.208-0.26,0.415-0.386,0.628c-0.369-0.609-0.97-0.992-1.577-1.331
		c-0.344,0.574-0.688,1.15-1.028,1.727c0.41,0.35,0.826,0.694,1.225,1.061c-0.791-0.361-1.536-0.804-2.307-1.203
		c1.203-0.65,1.572-2.099,2.298-3.17c0.074-0.131,0.221-0.399,0.295-0.533C184.277,232.004,184.105,231.683,184.021,231.523z"/>
	<path fill="#FDF9F7" d="M225.6,232.658c0.052-0.416,0.101-0.831,0.153-1.244c0.099,0.194,0.292,0.585,0.389,0.781
		c0.801,1.143,2.747-0.049,3.61,1.135c0.525,0.711-0.041,1.512-0.524,2.055c0.112-0.561,0.618-1.377-0.052-1.779
		C228.032,233.087,226.496,233.784,225.6,232.658z"/>
	<path fill="#FDF9F7" d="M219.378,234.858c0.372-0.112,0.741-0.224,1.113-0.336c-0.071,0.169-0.21,0.505-0.279,0.675
		c-0.514,1.462-0.973,3.241,0.213,4.515c-0.377,0.115-0.755,0.235-1.126,0.361c0.306-1.063-0.339-2.069-1.241-2.591
		c-0.686-0.53-1.405-1.017-2.143-1.473c0.386-0.077,0.771-0.156,1.156-0.233c0.651,0.73,1.419,1.34,2.22,1.9
		C219.425,236.752,219.928,235.738,219.378,234.858z"/>
	<path fill="#FDF9F7" d="M227.437,235.247c0.38-0.071,0.831,0.035,1.165,0.229C228.524,236.074,227.294,235.861,227.437,235.247z"/>
	<path fill="#FDF9F7" d="M185.095,236.911c0.615,0.295-0.533,0.948-0.836,0.457C183.914,236.927,184.833,236.908,185.095,236.911z"
		/>
	<path fill="#FDF9F7" d="M195.26,238.608c0.432-0.952,1.333-1.624,2.402-1.607c-2.402,0.768-2.315,4.33,0.063,5.064
		C196.05,241.959,194.606,240.287,195.26,238.608z"/>
	<path fill="#FDF9F7" d="M197.791,237.009c0.642,0.082,1.273,0.251,1.892,0.445c0.137,0.058,0.41,0.172,0.546,0.233
		c-0.062,0.344-0.123,0.691-0.18,1.039C199.69,237.714,198.77,237.25,197.791,237.009z"/>
	<path fill="#FDF9F7" d="M205.456,237.665c0.432-0.041,0.86-0.082,1.292-0.12c0.068,0.943,0.145,1.888,0.219,2.834
		c0.039,0.533,0.074,1.069,0.115,1.602c0.189,0.139,0.38,0.281,0.568,0.421c-0.637,0.024-1.273,0.06-1.908,0.104
		c0.241-0.156,0.481-0.311,0.722-0.464C206.051,240.631,206.866,238.553,205.456,237.665z"/>
	<path fill="#FDF9F7" d="M208,237.32c0.938,0.295,1.626,0.981,1.487,2.015c-0.287,0.241-0.577,0.481-0.864,0.725
		c0.984,0.869,1.998,1.735,3.239,2.216c-1.776,0.188-2.845-1.304-4.226-2.091C209.252,240.032,208.839,238.154,208,237.32z"/>
	<path fill="#FDF9F7" d="M199.349,241.495c0.539,0.29-0.771,0.956-0.809,0.39C198.745,241.631,199.015,241.5,199.349,241.495z"/>
</g>
<g>
	<g>
		<path fill="#DB1C23" d="M207.995,158.229l0.251-0.087c3.562,0.719,7.178,1.23,10.614,2.474c0.123-0.155,0.372-0.467,0.495-0.623
			c0.344,1.022,0.011,2.031-0.579,2.883c0.328,0.125,0.653,0.254,0.981,0.382c0.017-0.795,0.158-1.642,0.787-2.197
			c1.872,1.322,4.119,1.992,5.98,3.345c0.96,0.549,1.782,1.546,2.985,1.459c0.164,0.798,0.894,1.971-0.099,2.49
			c-1.178,0.336-1.629-1.036-1.689-1.943c-0.118,0.311-0.235,0.623-0.355,0.934c0.728,1.263,2.657,2.04,3.357,0.323
			c2.687,1.481,4.496,4.11,6.5,6.365c-0.585,0.467-1.228,0.858-1.889,1.203c0.203,0.216,0.405,0.432,0.61,0.65
			c0.095-0.083,0.284-0.243,0.377-0.326c0.912,2.667,2.867,4.81,3.832,7.457c0.129,0.328,0.251,0.659,0.375,0.992
			c0.828-0.213,2.321-0.785,2.553,0.456c0.604,1.071-0.839,1.591-1.484,2.143c0.09,0.319,0.18,0.637,0.273,0.956
			c0.492-0.585,1.014-1.145,1.585-1.65c1.003,2.637,1.443,5.436,1.982,8.191c0.369,0.071,0.741,0.139,1.112,0.208
			c-0.943,0.068-1.886,0.125-2.826,0.205c-0.164-0.205-0.328-0.408-0.489-0.609c0.18,1.259-0.071,2.672,0.694,3.777
			c-0.099-0.836-0.241-1.67-0.342-2.506c0.743-0.077,1.49-0.143,2.236-0.2c-0.432,2.137-0.276,4.343-0.167,6.508
			c0.372,0.052,0.749,0.104,1.123,0.147c-1.791-0.301-2.46,1.648-1.282,2.799c-0.732,1.749-0.88,3.668-1.249,5.513
			c-0.684-0.203-1.358-0.432-2.028-0.678c-0.112,0.364-0.225,0.73-0.336,1.094c0.336-0.058,0.675-0.112,1.017-0.148
			c-0.631,2.413-1.692,4.676-2.758,6.92c-0.44-0.019-1.017-0.273-1.282,0.227c0.459,0.716,1.044,1.342,1.582,2
			c-1.902,2.253-3.367,4.852-5.368,7.039c-0.435-0.426-0.864-0.858-1.29-1.293c0.531-0.533,1.137-0.995,1.886-1.169
			c-0.268-0.093-0.533-0.186-0.798-0.279c-1.027,1.085-2.012,2.219-3.143,3.198c-1.427,1.227-2.895,2.402-4.324,3.627
			c-0.224,0.188-0.448,0.374-0.659,0.577c-0.259,0.344-0.415,0.749-0.604,1.134c-0.096-0.196-0.29-0.587-0.389-0.781
			c-0.052,0.413-0.101,0.828-0.153,1.244c-1.662,1.087-3.4,2.189-5.387,2.539c0.068-0.17,0.208-0.505,0.279-0.675
			c-0.372,0.112-0.741,0.224-1.113,0.336c0.549,0.879,0.047,1.894-0.087,2.817c-0.801-0.56-1.568-1.17-2.22-1.9
			c-0.385,0.077-0.77,0.156-1.156,0.233c0.738,0.457,1.457,0.943,2.143,1.473c-2.793,0.882-5.655,1.536-8.572,1.853
			c0.14-1.033-0.549-1.719-1.487-2.015c0.839,0.834,1.252,2.712-0.364,2.865c-0.167,0.049-0.502,0.145-0.669,0.194
			c-0.074-0.946-0.15-1.891-0.219-2.834c-0.432,0.038-0.861,0.079-1.292,0.12c-1.927,0.205-3.838-0.339-5.773-0.211
			c-0.618-0.194-1.25-0.363-1.892-0.445l-0.128-0.008c-1.069-0.017-1.971,0.655-2.402,1.607c-3.201-1.047-6.363-2.195-9.419-3.621
			c0.03-0.043,0.084-0.134,0.115-0.18c-0.725-0.006-1.37-0.339-1.977-0.703c0.342-0.571,0.684-1.143,1.025-1.711
			c0.746,0.416,1.443,0.929,1.938,1.635c0.017-0.181,0.049-0.547,0.066-0.728c-1.003-0.585-1.996-1.181-2.988-1.777
			c0.085,0.159,0.257,0.481,0.342,0.643c-0.074,0.134-0.221,0.402-0.295,0.533c-1.719-1.296-3.534-2.477-5.125-3.931
			c0.268-0.14,0.542-0.268,0.814-0.394c-0.325-0.232-0.647-0.462-0.97-0.694c-0.814-0.56-1.596-1.167-2.301-1.861
			c0.074-0.052,0.216-0.153,0.29-0.202c-0.273-0.268-0.544-0.536-0.815-0.804c-0.115,0.249-0.235,0.495-0.361,0.741
			c-1.779-2.077-3.477-4.237-4.833-6.62c0.273-0.128,0.55-0.251,0.829-0.372c-0.189-0.284-0.375-0.568-0.561-0.849
			c-0.24,0.232-0.478,0.467-0.729,0.688c-0.779-1.905-1.79-3.715-2.452-5.667c0.719-1.225,0.039-2.539-0.38-3.733
			c-0.56,0.314-1.134,0.607-1.736,0.836c-0.809-1.708-0.314-3.922-1.59-5.374c1.169-0.754,1.036-2.134-0.008-2.93
			c0.271-1.353,0.273-2.736,0.175-4.108c-0.292-0.181-0.587-0.361-0.88-0.539c0.869,0.063,1.738,0.148,2.604,0.26
			c0.112,0.3,0.225,0.599,0.336,0.899c0.022-0.858,0.066-1.71,0.11-2.566c-0.194,0.325-0.391,0.651-0.585,0.976
			c-1.109-0.09-2.22-0.181-3.329-0.246c0.418-0.139,1.071-0.046,1.156-0.615c0.208-1.762,2.197-1.702,2.968-0.358
			c-0.181-1.088-0.935-1.962-2.121-1.754c0.358-0.134,0.711-0.276,1.065-0.416c0.61-2.296,0.84-4.709,1.864-6.876
			c0.265,0.213,0.52,0.442,0.773,0.672c0.301-0.959,0.662-1.899,1.02-2.84c-0.183-0.303-0.366-0.609-0.547-0.916
			c0.195,0.927-0.002,1.848-0.396,2.695c-0.71-0.252-1.416-0.509-2.118-0.779c0.435-0.452,0.825-0.954,1.044-1.55
			c1.041-2.567,2.4-4.988,3.856-7.342c1.777,1.708,4.494-0.92,3.521-2.911c1.856-1.943,3.764-3.837,5.811-5.578
			c0.197,0.306,0.383,0.618,0.571,0.927c0.853-0.626,1.708-1.244,2.567-1.864c-0.093-0.336-0.186-0.67-0.276-1.009
			c-0.15,1.058-0.989,1.687-1.848,2.184c-0.426-0.554-0.847-1.115-1.263-1.678c0.568-0.374,1.156-0.721,1.768-1.017
			c3.479-2.22,7.257-3.864,11.079-5.392c0.451,1.181,1.798,2.069,3.044,1.536c0.287-0.096,0.571-0.21,0.867-0.287
			c0.32-0.076,0.645-0.139,0.973-0.177c2.332-0.003,4.601-0.684,6.935-0.596c0.457,0.005,0.91,0.019,1.366,0.033
			c0.014-0.721,0.047-1.443,0.096-2.162c1.867,0.298,2.383,2.752,4.417,2.758C209.694,160.172,208.814,159.219,207.995,158.229z
			 M201.232,163.389c-11.729,1.138-22.588,8.536-27.954,19.021c-5.193,9.779-5.393,21.999-0.536,31.945
			c5.578,11.919,18.212,20.138,31.392,20.245c7.58,0.226,15.197-2.113,21.377-6.498c6.787-4.755,11.819-11.949,13.937-19.963
			c3.223-11.708-0.092-24.917-8.495-33.691C223.479,166.382,212.157,162.214,201.232,163.389z"/>
	</g>
	<path fill="#DB1C23" d="M167.279,209.976c0.587-0.142,0.899,0.951,0.555,1.347C167.544,210.927,167.323,210.471,167.279,209.976z"
		/>
</g>
<g>
	<g>
		<path fill="#161D46" d="M201.232,163.389c10.925-1.175,22.246,2.993,29.722,11.059c8.403,8.774,11.718,21.983,8.495,33.691
			c-2.118,8.014-7.15,15.208-13.937,19.963c-6.18,4.384-13.797,6.724-21.377,6.498c-13.18-0.107-25.814-8.326-31.392-20.245
			c-4.857-9.946-4.658-22.166,0.536-31.945C178.644,171.925,189.503,164.526,201.232,163.389z M195.544,164.859
			c-0.044,1.585-0.09,3.171-0.128,4.753c-0.282-0.64-0.722-1.186-1.121-1.752c-1.536,0.543-3.239,0.935-4.417,2.138
			c0.235,0.341,0.473,0.685,0.71,1.03c-0.09,0.063-0.268,0.191-0.358,0.254c-0.445-0.18-0.894-0.355-1.342-0.53
			c-0.115,0.809-0.246,1.616-0.35,2.428c-0.131-0.773-0.565-1.438-0.992-2.08c-1.481,1.046-3.034,2.031-4.291,3.354
			c0.353,0.587,0.706,1.176,1.033,1.777c-1.495-0.695-2.976-1.421-4.479-2.097c0.574,1.137,1.188,2.252,1.817,3.359
			c-0.498-0.068-0.992-0.136-1.49-0.208c-1.036,1.216-1.973,2.512-2.867,3.834c0.779,0.538,1.689,0.853,2.624,0.992
			c-0.957,0.12-1.908,0.276-2.861,0.41c0.142,0.37,0.287,0.738,0.435,1.104c-0.533-0.142-1.274-0.749-1.632-0.025
			c-0.831,1.358-1.514,2.835-1.935,4.371c-0.339,0.916,0.899,1.024,1.462,1.391c-0.342,0.121-0.684,0.24-1.028,0.361
			c-1.148,0.071-2.301,0.134-3.438,0.325c0.836,0.609,1.725,1.148,2.627,1.662c-1.739,1.38-1.271,3.881-1.506,5.844
			c0.628,0.038,1.26,0.073,1.894,0.104c-0.465,0.35-0.897,0.735-1.304,1.15c-0.35,0.364-0.776,0.788-0.675,1.342
			c0.172,1.807,0.268,3.648,0.803,5.396c0.676,0.024,1.354,0.096,2.028,0.03c-1.241,0.924-2.528,1.788-3.767,2.717
			c1.107,0.071,2.22,0.08,3.332,0.074c-0.222,0.407-0.669,0.796-0.479,1.304c0.452,1.661,1.187,3.25,2.072,4.725
			c0.528-0.35,1.072-0.684,1.55-1.096c-0.218,0.511-0.399,1.036-0.582,1.561c0.123,0.016,0.372,0.049,0.497,0.065
			c-0.273,0.197-0.544,0.396-0.817,0.596c0.817,1.697,1.916,3.266,3.171,4.668c0.547,0.688,1.476,0.219,2.195,0.156
			c-0.585,1.2-1.17,2.397-1.692,3.624c0.948-0.47,1.878-0.976,2.796-1.503c0.566,2.176,2.982,3.318,4.843,4.267
			c0.077-0.432,0.154-0.864,0.23-1.296c0.142,0.12,0.281,0.241,0.423,0.361c0.019,0.229,0.057,0.686,0.077,0.916
			c-0.203,0.817,0.623,1.137,1.208,1.449c1.539,0.751,3.105,1.467,4.767,1.908c0.391-0.49,0.839-0.957,1.08-1.547
			c0.123,1.492,0.273,2.982,0.369,4.478c0.574-0.823,1.107-1.673,1.607-2.542c1.162,1.591,3.384,1.337,5.125,1.566
			c2.851-0.333,5.783,0.145,8.577-0.643c0.719-0.125,0.689-0.97,0.911-1.509c0.602,0.96,1.263,1.88,1.94,2.791
			c0.106-1.287,0.238-2.575,0.254-3.865c0.312,0.544,0.722,1.613,1.517,1.227c3.26-1.11,6.259-2.877,9.033-4.9
			c0.918-0.752,2.356-1.503,1.957-2.925c0.967,0.492,1.952,0.96,2.966,1.348c-0.546-1.206-1.211-2.351-1.815-3.529
			c0.599,0.156,1.356,0.877,1.886,0.279c1.247-1.388,2.321-2.938,3.22-4.572c-0.328-0.18-0.65-0.369-0.99-0.519
			c0.156-0.017,0.468-0.052,0.621-0.068c-0.131-0.405-0.265-0.812-0.416-1.208c0.399,0.298,0.751,0.65,1.104,1.006
			c1.422-1.659,1.979-3.83,2.827-5.797c-0.271-0.353-0.539-0.705-0.809-1.058c1.153-0.076,2.304-0.172,3.452-0.298
			c-1.153-0.752-2.337-1.457-3.513-2.173c0.812-0.178,1.9-0.344,1.936-1.391c0.186-1.706,0.968-3.766-0.188-5.264
			c-0.421-0.333-0.836-0.672-1.26-1c0.593-0.014,1.183-0.024,1.773-0.038c-0.415-2.094,0.372-5.051-1.689-6.374
			c0.971-0.637,1.925-1.304,2.846-2.012c-1.205-0.038-2.411-0.024-3.616-0.06c-0.241-0.126-0.479-0.249-0.714-0.372
			c0.662-0.295,1.911-0.621,1.351-1.597c-0.856-1.606-1.121-4.006-3.007-4.733c-0.883-0.128-1.757-0.306-2.643-0.416
			c0.814-0.169,1.645-0.375,2.359-0.817c-0.175-1.025-0.971-1.771-1.553-2.583c-0.768-0.937-1.476-2.462-2.947-1.872
			c0.544-1.05,1.05-2.118,1.496-3.211c-1.342,0.669-2.649,1.405-3.974,2.107c0.218-0.609,0.451-1.216,0.688-1.817
			c-1.107-1.222-2.522-2.094-3.898-2.979c-0.344,0.344-0.686,0.689-1.033,1.028c-0.058-0.437-0.115-0.875-0.173-1.312
			c-0.645,0.243-1.29,0.486-1.93,0.747c0.274-0.583,0.621-1.129,0.979-1.662c-1.361-1.036-3.025-1.542-4.6-2.159
			c-0.792-0.361-1.083,0.741-1.509,1.194c-0.112-1.41-0.21-2.821-0.322-4.231c-0.839,1.222-1.588,2.504-2.354,3.772
			c-0.153-0.689,0.126-1.826-0.768-2.053c-1.476-0.375-3.023-0.62-4.546-0.413c-0.044,0.55-0.087,1.099-0.134,1.648
			c-0.314-0.412-0.628-0.825-0.946-1.235c-0.44,0.5-0.869,1.014-1.273,1.547c-0.033-0.593-0.06-1.187-0.08-1.779
			c-1.566-0.479-3.225,0.002-4.784,0.298c-0.858,0.079-0.926,0.998-1.106,1.657C197.119,167.09,196.35,165.961,195.544,164.859z"/>
	</g>
</g>
<g>
	<path fill="#8ED8F8" d="M195.544,164.859c0.806,1.102,1.574,2.23,2.329,3.368c0.459,0.677,0.932,1.344,1.416,2.006
		c-0.394,1.041-0.765,2.09-1.203,3.115c-0.913-0.612-1.782-1.293-2.708-1.886c0.019-0.617,0.039-1.232,0.039-1.85
		C195.454,168.03,195.5,166.445,195.544,164.859z"/>
	<path fill="#8ED8F8" d="M188.889,170.752c0.448,0.175,0.896,0.35,1.342,0.53c1.908,0.733,3.761,1.621,5.732,2.179
		c0.817,1.889,0.943,3.979,1.479,5.953c-1.73,1.189-3.734,1.861-5.601,2.796c-1.339-1.295-2.839-2.419-4.086-3.807
		c0.317-1.733,0.56-3.477,0.784-5.223C188.643,172.368,188.774,171.561,188.889,170.752z"/>
</g>
<g>
	<path fill="#92B2DE" d="M211.509,168.558c0.766-1.269,1.515-2.55,2.354-3.772c0.112,1.411,0.21,2.821,0.322,4.231
		c0.049,0.596,0.109,1.192,0.153,1.79c-0.423,1.178-1.621,1.754-2.531,2.509c-0.476-0.967-0.899-1.957-1.416-2.902
		C210.766,169.796,211.138,169.178,211.509,168.558z"/>
	<path fill="#92B2DE" d="M203.843,168.052c0.404-0.533,0.833-1.047,1.273-1.547c0.317,0.41,0.632,0.823,0.946,1.235
		c0.998,1.318,2.039,2.6,3.086,3.875c0.251,0.396,0.503,0.795,0.752,1.192c-0.292,0.892-0.583,1.779-0.872,2.67
		c-2.37,0.833-4.45,2.654-7.038,2.704c-0.566-1.856-1.2-3.688-1.78-5.538C201.454,171.14,202.651,169.596,203.843,168.052z"/>
	<path fill="#92B2DE" d="M179.809,174.133c1.503,0.675,2.984,1.402,4.479,2.097c0.503,0.246,1.001,0.508,1.498,0.768
		c0.027,0.203,0.08,0.607,0.107,0.807c0.095,0.809,0.21,1.612,0.303,2.418c-1.112-0.095-2.219-0.246-3.326-0.369
		c-0.396-0.798-0.809-1.585-1.244-2.361C180.998,176.385,180.383,175.27,179.809,174.133z"/>
	<path fill="#92B2DE" d="M179.893,182.111c1.332-0.153,2.66-0.35,3.977-0.602c0.476-0.008,1-0.013,1.334,0.388
		c1.408,1.416,2.648,2.988,4.032,4.431c-2.419,1.621-5.18,2.624-7.817,3.818c-0.462-0.106-0.924-0.213-1.386-0.319
		c-0.29-0.632-0.574-1.263-0.855-1.895c-0.574-1.434-1.121-2.877-1.711-4.307c-0.148-0.366-0.292-0.735-0.435-1.104
		C177.985,182.387,178.937,182.231,179.893,182.111z"/>
</g>
<g>
	<path fill="#EAC2B2" d="M231.796,164.988c0.492-0.259,0.547,0.771,0.124,0.87C231.578,165.756,231.626,165.223,231.796,164.988z"/>
</g>
<g>
	<path fill="#1F2E6A" d="M198.979,166.571c1.559-0.295,3.218-0.776,4.784-0.298c0.02,0.593,0.046,1.186,0.08,1.779
		c-1.192,1.544-2.389,3.088-3.633,4.591c0.055-1.361,1.416-2.295,1.266-3.733c-0.85,0.202-1.665,0.599-2.187,1.323
		c-0.484-0.662-0.957-1.329-1.416-2.006C198.054,167.568,198.122,166.65,198.979,166.571z"/>
	<path fill="#1F2E6A" d="M206.196,166.092c1.523-0.208,3.07,0.038,4.546,0.413c0.894,0.227,0.615,1.364,0.768,2.053
		c-0.372,0.62-0.743,1.238-1.118,1.856c-0.282-0.454-0.59-0.886-0.899-1.323c-0.336-0.019-0.672-0.041-1.009-0.062
		c0.194,0.869,0.377,1.743,0.664,2.587c-1.047-1.276-2.088-2.558-3.086-3.875C206.108,167.191,206.152,166.642,206.196,166.092z"/>
	<path fill="#1F2E6A" d="M214.186,169.017c0.426-0.454,0.716-1.556,1.509-1.194c1.574,0.617,3.239,1.123,4.6,2.159
		c-0.358,0.533-0.705,1.079-0.979,1.662c-1.768,0.727-3.536,1.467-5.343,2.099c0.683-1.104,2.053-1.443,2.955-2.328
		c-0.841-0.282-1.708-0.484-2.588-0.607C214.295,170.209,214.235,169.613,214.186,169.017z"/>
	<path fill="#1F2E6A" d="M189.878,169.999c1.178-1.203,2.881-1.594,4.417-2.138c0.399,0.566,0.839,1.112,1.121,1.752
		c0,0.618-0.02,1.232-0.039,1.85c-0.432-0.199-0.877-0.371-1.32-0.546c-0.181,0.101-0.539,0.306-0.719,0.407
		c0.76,0.858,2.017,1.137,2.624,2.138c-1.971-0.558-3.824-1.446-5.732-2.179c0.091-0.063,0.269-0.191,0.358-0.254
		C190.351,170.684,190.113,170.34,189.878,169.999z"/>
	<path fill="#1F2E6A" d="M183.255,174.453c1.257-1.323,2.81-2.307,4.291-3.354c0.427,0.642,0.861,1.307,0.992,2.08
		c-0.224,1.746-0.467,3.49-0.784,5.223c-0.282-1.138-0.287-2.312-0.347-3.474c-1.419,0.235-1.462,1.717-1.514,2.875
		c-0.027-0.2-0.08-0.604-0.107-0.807c-0.497-0.259-0.995-0.522-1.498-0.768C183.961,175.629,183.608,175.041,183.255,174.453z"/>
	<path fill="#1F2E6A" d="M221.418,172.209c0.347-0.339,0.688-0.684,1.033-1.028c1.375,0.886,2.791,1.758,3.898,2.979
		c-0.238,0.601-0.47,1.208-0.688,1.817c-0.583,0.331-1.148,0.686-1.717,1.039c-0.074,0.746-0.145,1.491-0.2,2.24
		c-0.117-0.027-0.353-0.079-0.473-0.106c0.139-1.229,0.295-2.457,0.445-3.686c-0.287-0.195-0.574-0.389-0.855-0.585
		c-0.408,0.943-0.547,1.965-0.613,2.981c-0.046-0.404-0.104-0.806-0.167-1.206C221.822,175.18,221.614,173.693,221.418,172.209z"/>
	<path fill="#1F2E6A" d="M228.139,177.083c1.471-0.59,2.179,0.935,2.947,1.872c0.582,0.812,1.378,1.558,1.553,2.583
		c-0.714,0.443-1.544,0.648-2.359,0.817c-0.746-0.071-1.49-0.158-2.23-0.26c-0.949-0.139-1.894-0.295-2.834-0.467
		c1.022-0.792,2.422-0.249,3.608-0.372c-0.112-0.998-0.746-1.736-1.815-1.67C227.349,178.735,227.727,177.899,228.139,177.083z"/>
	<path fill="#1F2E6A" d="M180.136,177.285c0.498,0.071,0.992,0.14,1.49,0.208c0.435,0.776,0.847,1.563,1.244,2.361
		c-0.804,0-1.7,0.172-1.804,1.118c1.328,0.014,2.665-0.052,3.988,0.115c-0.394,0.148-0.785,0.298-1.184,0.424
		c-1.317,0.252-2.646,0.448-3.977,0.602c-0.935-0.14-1.845-0.454-2.624-0.992C178.163,179.796,179.101,178.5,180.136,177.285z"/>
	<path fill="#1F2E6A" d="M232.922,182.77c1.886,0.727,2.151,3.127,3.007,4.733c0.56,0.976-0.689,1.301-1.351,1.597
		c0.235,0.123,0.473,0.246,0.714,0.372c-0.536-0.02-1.072-0.049-1.605-0.077c-0.415-0.03-0.833-0.071-1.247-0.109
		c0.484-0.82,0.7-1.755,0.153-2.607c-0.407,0.042-0.814,0.077-1.219,0.115C231.946,185.473,232.446,184.126,232.922,182.77z"/>
	<path fill="#1F2E6A" d="M175.834,183.601c0.358-0.724,1.099-0.117,1.632,0.025c0.59,1.43,1.137,2.873,1.711,4.307
		c-0.511-0.539-1.145-0.932-1.776-1.314c-0.563,0.904-0.468,1.97,0.035,2.873c-1.036,0.068-2.066,0.159-3.103,0.232
		c0.344-0.121,0.686-0.24,1.028-0.361c-0.563-0.367-1.801-0.476-1.462-1.391C174.32,186.436,175.003,184.959,175.834,183.601z"/>
	<path fill="#1F2E6A" d="M173.522,191.71c0.894,0.514,1.763,1.069,2.605,1.667c-0.839,0.292-1.012,1.08-0.924,1.875
		c1.143-0.208,2.088-0.901,2.985-1.593c0.153,0.043,0.454,0.128,0.604,0.172c-1.637,1.263-3.233,2.58-4.881,3.826
		c-0.634-0.03-1.266-0.065-1.894-0.104C172.251,195.591,171.783,193.09,173.522,191.71z"/>
	<path fill="#1F2E6A" d="M233.915,193.153c0.686-0.574,1.405-1.113,2.148-1.61c2.062,1.323,1.274,4.28,1.689,6.374
		c-0.59,0.014-1.181,0.024-1.773,0.038c-1.662-1.2-3.141-2.651-4.876-3.738c-1.465,0.12-2.813,0.838-4.229,1.208
		c0.684-1.079,2.091-1.216,3.207-1.583c1.826-0.59,2.87,1.678,4.63,1.689C234.794,194.646,234.488,193.82,233.915,193.153z"/>
	<path fill="#1F2E6A" d="M172.606,198.794h0.249c1.162,0.82,2.274,1.874,3.455,2.751c-0.454,0.057-0.908,0.122-1.358,0.181
		c0.095,0.667-0.003,1.453,0.461,1.996c1.085,0.61,2.452,0.707,3.324,1.68c-1.301-0.678-2.842-0.998-3.974,0.172
		c-0.675,0.066-1.353-0.005-2.028-0.03c-0.536-1.747-0.631-3.595-0.803-5.401C171.83,199.588,172.256,199.068,172.606,198.794z"/>
	<path fill="#1F2E6A" d="M234.035,201.465c1.08-0.823,2.129-1.681,3.203-2.509c1.156,1.498,0.375,3.559,0.188,5.264
		c-0.036,1.047-1.124,1.213-1.936,1.391c-0.675-0.416-1.361-0.812-2.052-1.197c-0.809,0.358-1.626,0.705-2.449,1.025
		c0.812-1.23,2.427-1.351,3.689-1.859C234.907,202.761,234.696,202.006,234.035,201.465z"/>
	<path fill="#1F2E6A" d="M177.346,210.785c1.03-0.861,1.479-2.148,2.148-3.27c-0.008,0.115-0.022,0.344-0.03,0.459
		c-0.421,1.854-1.273,3.575-1.993,5.324c-0.478,0.413-1.022,0.747-1.55,1.096c-0.885-1.476-1.62-3.064-2.072-4.725
		c-0.191-0.508,0.257-0.897,0.479-1.304c0.771,0.006,1.542,0.047,2.312,0.061C176.829,209.227,177.062,210.014,177.346,210.785z"/>
	<path fill="#1F2E6A" d="M232.632,208.341c0.974-0.104,1.946-0.191,2.919-0.26c0.271,0.353,0.538,0.705,0.809,1.058
		c-0.847,1.968-1.405,4.138-2.827,5.797c-0.353-0.355-0.705-0.708-1.104-1.006c-0.68-1.526-1.295-3.078-1.807-4.668
		c0.522,0.689,1.126,1.312,1.711,1.952C232.944,210.364,233.33,209.271,232.632,208.341z"/>
	<path fill="#1F2E6A" d="M177.387,214.925c1.257,0.169,2.512,0.355,3.772,0.514c-0.252,0.372-0.503,0.747-0.755,1.121
		c0.533,0.94,1.424,1.651,2.556,1.596c-0.336,0.733-0.675,1.462-1.025,2.189c-0.719,0.063-1.648,0.533-2.195-0.156
		c-1.255-1.402-2.354-2.971-3.171-4.668C176.843,215.322,177.113,215.122,177.387,214.925z"/>
	<path fill="#1F2E6A" d="M228.48,215.707c1.249-0.156,2.49-0.379,3.745-0.5c0.339,0.15,0.662,0.339,0.99,0.519
		c-0.899,1.635-1.973,3.185-3.22,4.572c-0.53,0.599-1.287-0.123-1.886-0.279c-0.402-0.798-0.908-1.536-1.498-2.202
		c1.112,0.167,2.247-0.069,2.703-1.219C229.036,216.3,228.759,216.002,228.48,215.707z"/>
	<path fill="#1F2E6A" d="M186.989,223.062c0.662-1.375,0.246-2.908,0.268-4.362c0.147,0.486,0.301,0.973,0.421,1.467
		c0.333,1.867,0.615,3.747,0.858,5.63c-0.142-0.12-0.281-0.241-0.423-0.361c-0.077,0.432-0.154,0.864-0.23,1.296
		c-1.861-0.949-4.277-2.091-4.843-4.267c0.817-0.467,1.656-0.899,2.528-1.257C185.956,221.886,186.44,222.504,186.989,223.062z"/>
	<path fill="#1F2E6A" d="M222.76,223.436c0.744-0.621,1.386-1.353,1.834-2.213c0.806,0.278,1.599,0.601,2.364,0.978
		c0.399,1.421-1.039,2.173-1.957,2.925c-2.774,2.023-5.773,3.791-9.033,4.9c-0.795,0.386-1.206-0.683-1.517-1.227
		c-0.008-0.697-0.003-1.391-0.005-2.085c0.86,1.17,2.165,0.831,3.208,0.137c-0.008-0.448-0.016-0.896-0.021-1.342
		c1.093,0.471,2.205,0.894,3.34,1.263c0.227-1.495,0.443-2.993,0.648-4.494C222,222.663,222.38,223.051,222.76,223.436z"/>
	<path fill="#1F2E6A" d="M188.613,226.713c1.232-0.464,2.458-0.948,3.673-1.451c0.101,1.588,1.776,1.894,3.009,1.323
		c0.082,0.202,0.167,0.402,0.243,0.606c0.052,0.443,0.101,0.886,0.129,1.331c-0.241,0.59-0.689,1.058-1.08,1.547
		c-1.662-0.44-3.229-1.156-4.767-1.908C189.236,227.85,188.41,227.53,188.613,226.713z"/>
	<path fill="#1F2E6A" d="M199.376,227.747c0.279,1.003,1.273,1.282,2.198,1.377c0.205-0.457,0.41-0.91,0.617-1.367
		c0.829,1.121,1.697,2.214,2.6,3.277c0.727-0.814,1.424-1.657,2.069-2.54c0.172,0.358,0.345,0.716,0.517,1.074
		c1.32-0.011,3.116,0.125,3.547-1.484c0.462,0.582,0.919,1.167,1.332,1.788c-0.221,0.539-0.191,1.383-0.911,1.509
		c-2.793,0.788-5.726,0.309-8.577,0.643c-1.741-0.229-3.963,0.025-5.125-1.566C198.188,229.534,198.77,228.629,199.376,227.747z"/>
</g>
<g>
	<g>
		<path fill="#16449A" d="M199.289,170.233c0.522-0.725,1.336-1.121,2.187-1.323c0.15,1.438-1.211,2.372-1.266,3.733
			c0.58,1.851,1.213,3.682,1.78,5.538c1.046,3.148,2.033,6.318,3.102,9.461c1.304-4.059,2.654-8.101,3.936-12.165
			c0.29-0.891,0.58-1.779,0.872-2.67c-0.249-0.396-0.5-0.795-0.752-1.192c-0.287-0.844-0.47-1.719-0.664-2.587
			c0.336,0.021,0.672,0.043,1.009,0.062c0.309,0.438,0.617,0.869,0.899,1.323c0.517,0.945,0.94,1.935,1.416,2.902
			c0.91-0.754,2.107-1.331,2.531-2.509c0.88,0.123,1.747,0.325,2.588,0.607c-0.902,0.885-2.271,1.224-2.955,2.328
			c-0.669,2.684-1.156,5.409-1.757,8.106c-0.544,2.455-1.091,4.912-1.561,7.382c3.611-3.244,7.197-6.516,10.816-9.749
			c0.5-0.399,0.812-0.97,0.779-1.621c0.065-1.017,0.205-2.039,0.613-2.981c0.281,0.196,0.568,0.39,0.855,0.585
			c-0.15,1.229-0.306,2.457-0.445,3.686c0.12,0.027,0.355,0.079,0.473,0.106c-0.022,0.301-0.041,0.602-0.057,0.902
			c1.118-0.125,2.219-0.347,3.321-0.574c1.069-0.065,1.703,0.672,1.815,1.67c-1.186,0.123-2.586-0.421-3.608,0.372
			c-1.392,1.635-2.862,3.198-4.248,4.838c-2.08,2.271-4.208,4.504-6.188,6.866c4.679-0.918,9.31-2.069,13.989-2.985
			c1.815-0.137,1.897-2.285,2.607-3.553c0.405-0.038,0.812-0.073,1.219-0.115c0.546,0.853,0.331,1.788-0.153,2.607
			c0.413,0.038,0.832,0.08,1.247,0.109c-1.631-0.164-2.304,1.484-3.037,2.616c1.025,0.533,2.113,0.97,3.264,1.143
			c0.574,0.667,0.88,1.492,0.795,2.377c-1.76-0.011-2.805-2.279-4.63-1.689c-1.115,0.367-2.523,0.503-3.207,1.583
			c-3.566,1.26-7.199,2.334-10.799,3.509c4.57,1.572,9.203,2.955,13.787,4.488c1.728,0.826,2.854-1.205,4.174-1.957
			c0.661,0.541,0.872,1.296,0.645,2.115c-1.263,0.509-2.878,0.629-3.689,1.859c-0.115,0.147-0.225,0.297-0.334,0.451
			c0.621,0.847,1.301,1.648,1.976,2.452c0.697,0.929,0.312,2.023-0.297,2.873c-0.585-0.64-1.189-1.263-1.711-1.952
			c-0.421-0.656-0.787-1.517-1.662-1.632c-4.811-1.006-9.607-2.09-14.421-3.085c3.252,3.578,6.511,7.152,9.748,10.747
			c1.021,1.318,2.818,0.448,4.192,0.416c0.279,0.295,0.555,0.593,0.834,0.891c-0.457,1.15-1.591,1.386-2.703,1.219
			c-0.935-0.027-1.87-0.058-2.805-0.083c0.02,1.203,0.197,2.419,0.787,3.488c-0.448,0.861-1.09,1.593-1.834,2.213
			c-0.38-0.385-0.76-0.773-1.14-1.159c0.153-1.074,0.279-2.151,0.385-3.23c-3.865-3.496-7.689-7.039-11.605-10.474
			c1.085,5.111,2.17,10.225,3.321,15.321c1.287,0.577,2.607,1.077,3.911,1.613c0.005,0.446,0.014,0.894,0.021,1.342
			c-1.044,0.694-2.348,1.033-3.208-0.137c0.002,0.694-0.003,1.388,0.005,2.085c-0.017,1.29-0.148,2.578-0.254,3.865
			c-0.678-0.911-1.339-1.831-1.94-2.791c-0.413-0.621-0.869-1.206-1.332-1.788c-0.432,1.61-2.227,1.474-3.547,1.484
			c-0.172-0.358-0.345-0.716-0.517-1.074c0.848-1.596,3.321-2.889,2.318-4.941c-1.49-4.513-2.925-9.042-4.349-13.576
			c-1.544,4.635-2.968,9.312-4.515,13.947c-0.626,1.585,1.188,2.613,1.877,3.832c-0.208,0.457-0.413,0.91-0.617,1.367
			c-0.924-0.096-1.919-0.375-2.198-1.377c-0.339-1.093-0.741-2.165-1.288-3.17c-0.995,0.706-2.138,1.391-2.55,2.615
			c-0.077-0.205-0.161-0.404-0.243-0.606c-1.233,0.571-2.908,0.265-3.009-1.323c1.194-0.489,2.389-0.973,3.589-1.449
			c1.241-5.119,2.285-10.288,3.37-15.442c-3.625,3.312-7.273,6.597-10.911,9.891c-0.61,0.451-0.754,1.183-0.656,1.905
			c-0.12-0.495-0.273-0.981-0.421-1.467c-0.022,1.454,0.394,2.986-0.268,4.362c-0.549-0.558-1.033-1.176-1.421-1.854
			c0.541-1.099,0.566-2.339,0.587-3.536c-1.066,0.145-2.126,0.344-3.195,0.483c-1.132,0.055-2.023-0.655-2.556-1.596
			c0.251-0.375,0.503-0.749,0.755-1.121c1.41-0.021,3.274,1.088,4.299-0.352c3.168-3.652,6.571-7.099,9.687-10.794
			c-4.422,0.94-8.831,1.958-13.265,2.843c-0.839,0.17-1.64,0.484-2.417,0.839c0.008-0.115,0.022-0.344,0.03-0.459
			c-0.669,1.121-1.118,2.408-2.148,3.27c-0.285-0.771-0.517-1.558-0.706-2.359c1.372-0.162,1.916-1.572,2.602-2.569
			c-0.167-0.153-0.336-0.307-0.506-0.454c-0.872-0.974-2.238-1.069-3.324-1.678c-0.464-0.544-0.366-1.328-0.461-1.995
			c0.451-0.061,0.904-0.121,1.358-0.178c1.102,0.656,2.072,2.295,3.526,1.647c4.649-1.543,9.345-2.957,13.981-4.542
			c-1.479-0.464-2.946-0.961-4.428-1.41c-3.545-1.101-7.055-2.312-10.597-3.416c-0.15-0.043-0.451-0.128-0.604-0.172
			c-0.897,0.691-1.842,1.385-2.985,1.593c-0.088-0.795,0.084-1.582,0.924-1.875c1.104-0.32,2.181-0.727,3.204-1.257
			c-0.607-0.894-1.288-1.735-1.895-2.629c-0.503-0.902-0.598-1.968-0.035-2.873c0.631,0.382,1.266,0.776,1.776,1.314
			c0.281,0.631,0.565,1.263,0.855,1.895c0.462,0.106,0.924,0.213,1.386,0.319c4.597,0.96,9.178,2.015,13.795,2.895
			c-1.927-2.296-3.982-4.477-5.978-6.712c-1.383-1.443-2.624-3.015-4.032-4.431c-0.333-0.401-0.858-0.396-1.334-0.388
			c0.399-0.125,0.791-0.276,1.184-0.424c-1.324-0.167-2.66-0.101-3.988-0.115c0.104-0.945,1-1.118,1.804-1.118
			c1.107,0.123,2.214,0.273,3.326,0.369c-0.093-0.806-0.208-1.609-0.303-2.418c0.052-1.159,0.095-2.641,1.514-2.875
			c0.06,1.162,0.065,2.336,0.347,3.474c1.247,1.388,2.747,2.511,4.086,3.807c2.54,2.296,5.054,4.622,7.645,6.857
			c-0.653-3.222-1.353-6.437-2.044-9.653c-0.536-1.973-0.661-4.063-1.479-5.953c-0.607-1-1.864-1.279-2.624-2.138
			c0.18-0.101,0.539-0.306,0.719-0.407c0.443,0.175,0.888,0.348,1.32,0.546c0.927,0.593,1.796,1.274,2.708,1.886
			C198.524,172.324,198.896,171.274,199.289,170.233z M200.683,183.12c-0.11,2.189-0.118,4.378-0.074,6.567
			c0.383,0.284,0.763,0.577,1.165,0.834c-0.542-0.17-1.099-0.271-1.652-0.383c-0.106,0.982,0.293,2.173-0.374,2.996
			c-0.257-0.957-0.145-2.077-0.639-2.933c-1.851-0.984-3.756-1.894-5.681-2.736c0.974,1.905,2.037,3.761,3.092,5.623
			c0.751,0.125,1.503,0.271,2.269,0.306c-0.768,0.183-1.55,0.292-2.329,0.394c0.427,0.899,0.935,1.759,1.471,2.599
			c-0.093,0.065-0.282,0.199-0.375,0.265c-0.606-0.792-1.222-1.577-1.878-2.328c-2.148,0.106-4.285,0.355-6.437,0.451
			c1.695,1.197,3.553,2.135,5.308,3.233c0.656,1.347,2.421,1.396,3.187,2.632c-1.066-0.244-2.088-0.634-3.121-0.99
			c-1.739,1.241-3.551,2.383-5.245,3.684c3.337,0.057,6.669,0.06,9.993,0.391c0.025,0.139,0.071,0.412,0.093,0.549
			c-1.006,0.137-2.009,0.295-3.012,0.459c-0.962,1.921-1.917,3.848-2.783,5.816c1.872-0.97,3.747-1.951,5.549-3.045
			c0.303-0.744,0.306-1.575,0.401-2.362c0.285,0.692,0.508,1.408,0.621,2.149c0.916-0.421,1.691-1.23,2.75-1.263
			c-0.675,0.836-1.522,1.506-2.378,2.148c-0.118,2.176,0.317,4.329,0.369,6.502c1.228-1.769,2.318-3.633,3.404-5.494
			c-0.443-0.911-0.861-1.842-1.08-2.837c0.798,0.672,1.254,1.624,1.736,2.525c0.618-0.831,0.765-2.279,1.894-2.558
			c-0.363,1.025-0.757,2.039-1.124,3.064c1.222,1.774,2.405,3.578,3.698,5.302c0.033-2.173,0.162-4.346,0.071-6.516
			c-0.866-0.587-1.676-1.249-2.521-1.861c1.115-0.219,1.979,0.727,3.001,1c0.096-1.091-0.399-2.417,0.353-3.34
			c0.976-0.448,2.104-0.265,3.152-0.336c0.024-0.366,0.049-0.732,0.077-1.095c0.352,0.448,0.738,1.101,1.416,0.953
			c1.952-0.107,3.895-0.319,5.849-0.434c-1.788-1.216-3.652-2.315-5.524-3.389c-0.908,0.405-1.817,0.801-2.728,1.197
			c-0.054-0.115-0.167-0.347-0.222-0.462c0.85-0.577,1.739-1.093,2.586-1.673c-0.439-0.339-0.886-0.672-1.331-1.006
			c0.766,0.126,1.641,0.678,2.365,0.156c1.623-1.069,3.222-2.181,4.772-3.356c-2.165-0.044-4.33-0.107-6.492-0.046
			c-0.612,0.879-1.216,1.781-2.056,2.465c0.178-1.17,0.881-2.141,1.414-3.165c-0.476-0.137-0.946-0.306-1.44-0.355
			c0.618-0.164,1.514-0.107,1.788-0.825c0.82-1.799,1.795-3.521,2.539-5.352c-1.883,0.995-3.799,1.957-5.603,3.086
			c-0.386,0.855-0.235,1.902-0.421,2.826c-0.842-0.732-0.385-2.003-0.505-2.977c-0.345-0.011-0.691-0.021-1.033-0.03
			c0.271-0.243,0.672-0.489,0.631-0.913c0.008-2.061-0.331-4.107-0.382-6.169c-1.115,1.5-1.974,3.171-2.988,4.74
			c-0.803,0.956,0.186,2.041,0.433,3.014c-0.722-0.536-1.203-1.304-1.646-2.071c-0.353,0.558-0.667,1.203-1.31,1.476
			c0.241-0.574,0.446-1.161,0.65-1.746C203.154,186.694,202.008,184.842,200.683,183.12z M210.424,204.392
			c0.099,1.115,0.276,2.225,0.583,3.304c1.927,0.807,3.766,1.802,5.686,2.622c-0.84-1.613-1.731-3.198-2.595-4.799
			C213.437,204.154,211.654,204.621,210.424,204.392z"/>
	</g>
</g>
<g>
	<path fill="#62CDF6" d="M219.315,171.644c0.64-0.26,1.285-0.503,1.93-0.747c0.058,0.437,0.115,0.875,0.173,1.312
		c0.196,1.484,0.404,2.971,0.664,4.447c-0.317,0.711-0.804,1.354-1.572,1.596c-2.788,1.148-5.374,2.793-8.295,3.597
		c0.601-2.698,1.088-5.422,1.757-8.106C215.779,173.111,217.547,172.37,219.315,171.644z"/>
	<path fill="#62CDF6" d="M197.441,179.414c0.692,3.217,1.392,6.431,2.044,9.653c-2.591-2.236-5.105-4.561-7.645-6.857
		C193.707,181.275,195.711,180.603,197.441,179.414z"/>
	<path fill="#62CDF6" d="M173.91,197.65c1.648-1.247,3.244-2.561,4.881-3.823c3.542,1.104,7.052,2.31,10.597,3.411
		c-5.467,0.889-10.991,1.556-16.534,1.556h-0.249C173.013,198.521,173.445,198,173.91,197.65z"/>
</g>
<g>
	<path fill="#807BBA" d="M225.66,175.978c1.325-0.702,2.632-1.438,3.974-2.107c-0.446,1.093-0.952,2.162-1.496,3.211
		c-0.412,0.817-0.79,1.653-1.131,2.503c-1.102,0.227-2.203,0.449-3.321,0.574c0.017-0.3,0.035-0.601,0.057-0.902
		c0.055-0.749,0.126-1.494,0.2-2.24C224.512,176.664,225.078,176.309,225.66,175.978z"/>
	<path fill="#807BBA" d="M174.333,189.723c1.036-0.074,2.066-0.164,3.103-0.232c0.606,0.894,1.288,1.736,1.895,2.629
		c-1.023,0.53-2.099,0.937-3.204,1.257c-0.842-0.599-1.711-1.153-2.605-1.667c-0.902-0.514-1.791-1.052-2.627-1.662
		C172.032,189.857,173.186,189.794,174.333,189.723z"/>
</g>
<g>
	<path fill="#81A7D8" d="M201.99,178.182c2.588-0.049,4.668-1.87,7.038-2.704c-1.282,4.064-2.632,8.106-3.936,12.165
		C204.023,184.5,203.036,181.33,201.99,178.182z"/>
	<path fill="#81A7D8" d="M189.236,186.329c1.995,2.235,4.05,4.417,5.978,6.712c-4.617-0.88-9.198-1.935-13.795-2.895
		C184.056,188.952,186.816,187.949,189.236,186.329z"/>
</g>
<g>
	<path fill="#43C8F5" d="M222.082,176.656c0.062,0.399,0.12,0.801,0.167,1.206c0.033,0.65-0.279,1.222-0.779,1.621
		c-3.619,3.233-7.205,6.505-10.816,9.749c0.47-2.471,1.017-4.927,1.561-7.382c2.922-0.803,5.508-2.449,8.295-3.597
		C221.278,178.009,221.765,177.367,222.082,176.656z"/>
	<path fill="#43C8F5" d="M200.683,183.12c1.325,1.722,2.471,3.574,3.711,5.357c-0.205,0.585-0.41,1.172-0.65,1.746
		c-0.172,0.385-0.364,0.763-0.544,1.143c-0.476-0.281-0.949-0.565-1.426-0.844c-0.402-0.257-0.782-0.55-1.165-0.834
		C200.565,187.498,200.573,185.309,200.683,183.12z"/>
	<path fill="#43C8F5" d="M189.241,194.774c2.151-0.096,4.289-0.344,6.437-0.451c0.656,0.751,1.271,1.536,1.878,2.328
		c-0.894,0.667-1.957,1.022-3.006,1.356C192.794,196.909,190.936,195.971,189.241,194.774z"/>
</g>
<g>
	<path fill="#5891CD" d="M225.214,181.627c0.94,0.172,1.886,0.328,2.834,0.467c-2.184,1.719-4.586,3.152-7.083,4.371
		C222.353,184.826,223.823,183.262,225.214,181.627z"/>
	<path fill="#5891CD" d="M206.267,187.805c1.014-1.569,1.873-3.239,2.988-4.74c0.052,2.062,0.391,4.108,0.382,6.169
		c0.041,0.424-0.361,0.669-0.631,0.913c-0.561,0.432-1.148,0.826-1.733,1.222c-0.191-0.183-0.382-0.367-0.574-0.55
		C206.453,189.846,205.463,188.761,206.267,187.805z"/>
</g>
<g>
	<path fill="#006EB9" d="M228.049,182.095c0.74,0.102,1.484,0.189,2.23,0.26c0.886,0.109,1.76,0.287,2.643,0.416
		c-0.476,1.356-0.976,2.703-1.547,4.023c-0.71,1.269-0.792,3.417-2.607,3.553c-4.679,0.916-9.31,2.066-13.989,2.985
		c1.979-2.361,4.107-4.595,6.188-6.866C223.462,185.247,225.865,183.814,228.049,182.095z"/>
	<path fill="#006EB9" d="M205.054,188.748c0.443,0.768,0.924,1.536,1.646,2.071c0.191,0.183,0.382,0.367,0.574,0.55
		c0.585-0.396,1.172-0.79,1.733-1.222c0.342,0.009,0.688,0.02,1.033,0.03c0.12,0.973-0.336,2.244,0.505,2.977
		c0.52,0.279,1.124,0.251,1.698,0.265c0.495,0.049,0.965,0.219,1.44,0.355c-0.533,1.024-1.236,1.995-1.414,3.165
		c0.839-0.684,1.443-1.585,2.056-2.465c2.162-0.061,4.327,0.002,6.492,0.046c-1.55,1.175-3.149,2.287-4.772,3.356
		c-0.724,0.522-1.599-0.03-2.365-0.156c0.445,0.333,0.892,0.667,1.331,1.006c-0.847,0.58-1.736,1.096-2.586,1.673
		c0.055,0.115,0.167,0.347,0.222,0.462c0.284,0.582,0.612,1.143,0.987,1.673c-0.027,0.363-0.052,0.729-0.077,1.095
		c-1.047,0.071-2.176-0.112-3.152,0.336c-0.752,0.924-0.257,2.25-0.353,3.34c-1.022-0.274-1.886-1.219-3.001-1l-0.125,0.011
		c-1.129,0.279-1.276,1.728-1.894,2.558c-0.481-0.902-0.938-1.853-1.736-2.525c0.219,0.995,0.637,1.927,1.08,2.837
		c-1.085,1.861-2.176,3.725-3.404,5.494c-0.052-2.173-0.486-4.327-0.369-6.502c0.856-0.642,1.703-1.312,2.378-2.148
		c-1.059,0.033-1.834,0.842-2.75,1.263c-0.112-0.741-0.336-1.457-0.621-2.149c-0.055-0.289-0.106-0.579-0.156-0.869
		c-0.022-0.137-0.068-0.41-0.093-0.549c-3.324-0.331-6.656-0.334-9.993-0.391c1.694-1.301,3.506-2.443,5.245-3.684
		c1.033,0.355,2.055,0.746,3.121,0.99c-0.766-1.236-2.531-1.285-3.187-2.632c1.049-0.333,2.113-0.689,3.006-1.356
		c0.093-0.066,0.282-0.199,0.375-0.265c-0.536-0.84-1.044-1.7-1.471-2.599c0.779-0.101,1.561-0.211,2.329-0.394
		c0.323-0.074,0.645-0.156,0.959-0.26c0.667-0.822,0.268-2.014,0.374-2.996c0.553,0.112,1.11,0.213,1.652,0.383
		c0.478,0.279,0.951,0.563,1.426,0.844c0.18-0.38,0.372-0.757,0.544-1.143C204.386,189.95,204.701,189.305,205.054,188.748z"/>
	<path fill="#006EB9" d="M230.651,192.011c0.733-1.131,1.405-2.78,3.037-2.616c0.533,0.027,1.069,0.057,1.605,0.077
		c1.205,0.036,2.411,0.022,3.616,0.06c-0.921,0.708-1.875,1.375-2.846,2.012c-0.743,0.497-1.462,1.036-2.148,1.61
		C232.764,192.981,231.676,192.544,230.651,192.011z"/>
	<path fill="#006EB9" d="M181.88,207.136c4.434-0.885,8.842-1.902,13.265-2.843c-3.116,3.695-6.519,7.142-9.687,10.794
		c-1.024,1.44-2.889,0.331-4.299,0.352c-1.26-0.158-2.515-0.344-3.772-0.514c-0.125-0.016-0.375-0.049-0.497-0.065
		c0.183-0.525,0.363-1.05,0.582-1.561c0.719-1.749,1.572-3.471,1.993-5.324C180.241,207.62,181.042,207.306,181.88,207.136z"/>
	<path fill="#006EB9" d="M210.424,204.392c1.23,0.229,3.012-0.238,3.673,1.126c0.864,1.602,1.755,3.187,2.595,4.799
		c-1.919-0.82-3.758-1.815-5.686-2.622C210.701,206.616,210.523,205.507,210.424,204.392z"/>
	<path fill="#006EB9" d="M174.763,205.575c1.132-1.17,2.673-0.85,3.974-0.172c0.169,0.147,0.339,0.301,0.506,0.454
		c-0.686,0.998-1.23,2.408-2.602,2.569c-0.771-0.014-1.542-0.055-2.312-0.061c-1.112,0.006-2.225-0.002-3.332-0.074
		C172.234,207.363,173.522,206.499,174.763,205.575z"/>
	<path fill="#006EB9" d="M214.541,204.545c4.813,0.995,9.61,2.08,14.421,3.085c0.875,0.115,1.241,0.976,1.662,1.632
		c0.511,1.591,1.126,3.143,1.807,4.668c0.15,0.396,0.285,0.803,0.416,1.208c-0.153,0.016-0.465,0.052-0.621,0.068
		c-1.254,0.121-2.496,0.344-3.745,0.5c-1.375,0.033-3.171,0.902-4.192-0.416C221.051,211.697,217.793,208.123,214.541,204.545z"/>
	<path fill="#006EB9" d="M200.314,223.926c1.547-4.636,2.971-9.312,4.515-13.947c1.424,4.534,2.859,9.062,4.349,13.576
		c1.003,2.052-1.471,3.345-2.318,4.941c-0.645,0.883-1.342,1.725-2.069,2.54c-0.902-1.063-1.771-2.157-2.6-3.277
		C201.502,226.539,199.688,225.511,200.314,223.926z"/>
	<path fill="#006EB9" d="M223.807,217.735c0.935,0.025,1.87,0.055,2.805,0.083c0.59,0.667,1.096,1.404,1.498,2.202
		c0.604,1.178,1.269,2.323,1.815,3.529c-1.014-0.388-1.999-0.855-2.966-1.348c-0.765-0.377-1.558-0.7-2.364-0.978
		C224.004,220.154,223.826,218.938,223.807,217.735z"/>
	<path fill="#006EB9" d="M195.539,227.191c0.413-1.224,1.555-1.91,2.55-2.615c0.546,1.005,0.948,2.078,1.288,3.17
		c-0.607,0.882-1.189,1.788-1.733,2.711c-0.5,0.87-1.033,1.72-1.607,2.542c-0.096-1.495-0.246-2.985-0.369-4.478
		C195.64,228.077,195.591,227.634,195.539,227.191z"/>
</g>
<g>
	<path fill="#00AEF0" d="M210.966,190.327c1.804-1.129,3.72-2.091,5.603-3.086c-0.744,1.831-1.719,3.553-2.539,5.352
		c-0.273,0.718-1.17,0.661-1.788,0.825c-0.574-0.014-1.178,0.014-1.698-0.265C210.73,192.229,210.58,191.183,210.966,190.327z"/>
	<path fill="#00AEF0" d="M226.873,195.424c1.416-0.369,2.764-1.087,4.229-1.208c1.735,1.087,3.214,2.539,4.876,3.738
		c0.423,0.328,0.839,0.667,1.26,1c-1.074,0.828-2.124,1.687-3.203,2.509c-1.32,0.752-2.447,2.782-4.174,1.957
		c-4.583-1.533-9.217-2.916-13.787-4.488C219.674,197.759,223.307,196.684,226.873,195.424z"/>
	<path fill="#00AEF0" d="M189.389,197.247c1.482,0.449,2.949,0.946,4.428,1.41c-4.636,1.585-9.332,2.999-13.981,4.542
		c-1.454,0.648-2.424-0.991-3.526-1.647c-1.181-0.878-2.293-1.84-3.455-2.745C178.398,198.724,183.922,198.135,189.389,197.247z"/>
	<path fill="#00AEF0" d="M212.646,200.861c0.911-0.396,1.82-0.792,2.728-1.197c1.872,1.074,3.736,2.173,5.524,3.389
		c-1.955,0.115-3.897,0.327-5.849,0.434c-0.678,0.148-1.063-0.505-1.416-0.953C213.259,202.003,212.931,201.443,212.646,200.861z"/>
	<path fill="#00AEF0" d="M196.444,204.733c1.003-0.164,2.006-0.322,3.012-0.459c0.049,0.29,0.101,0.58,0.156,0.869
		c-0.096,0.787-0.099,1.618-0.401,2.362c-1.802,1.094-3.677,2.075-5.549,3.045C194.527,208.582,195.481,206.654,196.444,204.733z"/>
	<path fill="#00AEF0" d="M230.99,205.439c0.823-0.32,1.64-0.667,2.449-1.025c0.691,0.385,1.377,0.782,2.052,1.197
		c1.176,0.716,2.359,1.421,3.513,2.173c-1.148,0.125-2.299,0.222-3.452,0.298c-0.973,0.068-1.946,0.156-2.919,0.26
		c-0.675-0.804-1.355-1.604-1.976-2.452C230.766,205.736,230.875,205.586,230.99,205.439z"/>
	<path fill="#00AEF0" d="M206.926,206.316l0.125-0.011c0.845,0.612,1.654,1.273,2.521,1.861c0.09,2.17-0.038,4.343-0.071,6.516
		c-1.293-1.725-2.477-3.528-3.698-5.302C206.169,208.355,206.562,207.341,206.926,206.316z"/>
	<path fill="#00AEF0" d="M188.334,218.263c3.638-3.294,7.287-6.579,10.911-9.891c-1.085,5.154-2.129,10.323-3.37,15.442
		c-1.2,0.476-2.395,0.959-3.589,1.449c-1.216,0.503-2.441,0.987-3.673,1.451c-0.02-0.229-0.058-0.686-0.077-0.916
		c-0.243-1.883-0.525-3.764-0.858-5.63C187.58,219.446,187.724,218.713,188.334,218.263z"/>
	<path fill="#00AEF0" d="M210.4,208.574c3.917,3.435,7.741,6.978,11.605,10.474c-0.106,1.079-0.232,2.156-0.385,3.23
		c-0.205,1.5-0.421,2.999-0.648,4.494c-1.135-0.369-2.247-0.792-3.34-1.263c-1.304-0.536-2.624-1.036-3.911-1.613
		C212.57,218.798,211.485,213.685,210.4,208.574z"/>
	<path fill="#00AEF0" d="M182.96,218.156c1.068-0.139,2.129-0.338,3.195-0.483c-0.021,1.197-0.046,2.438-0.587,3.536
		c-0.872,0.358-1.711,0.79-2.528,1.257c-0.918,0.527-1.848,1.033-2.796,1.503c0.522-1.227,1.107-2.424,1.692-3.624
		C182.285,219.618,182.624,218.889,182.96,218.156z"/>
</g>
<g>
	<path fill="#6A9AD2" d="M193.428,187.465c1.925,0.842,3.83,1.752,5.681,2.736c0.495,0.856,0.382,1.976,0.639,2.933
		c-0.314,0.104-0.637,0.186-0.959,0.26c-0.766-0.036-1.517-0.181-2.269-0.306C195.465,191.227,194.402,189.371,193.428,187.465z"/>
</g>
<g>
	<path fill="#FAA618" d="M162.293,202.9c0-0.981,1.055-1.282,1.845-1.364c1.044,0.796,1.178,2.176,0.008,2.93
		C163.226,204.531,162.138,203.968,162.293,202.9z"/>
	<path fill="#FAA618" d="M245.495,204.436c-1.178-1.151-0.508-3.1,1.282-2.799C248.382,202.607,247.319,205.026,245.495,204.436z"/>
</g>
</svg>
